<?xml version="1.0" ?>

<svg  fill="#A8A7A7" enable-background="new 0 0 100 100" height="34px" width="34px" version="1.1" viewBox="0 0 100 100"  xml:space="preserve" xmlns="http://www.w3.org/2000/svg" xmlns:xlink="http://www.w3.org/1999/xlink"><path d="M55.146,81.596H16.209c-1.056,0-1.915-0.859-1.915-1.914V10.745c0-1.056,0.859-1.915,1.915-1.915l38.938-0.002v13.406  c0,3.167,2.576,5.744,5.744,5.744h13.403v24.894c0,1.058,0.856,1.915,1.915,1.915s1.915-0.857,1.915-1.915V27.021  c0-1.03-0.509-2.26-1.237-2.988L59.091,6.238C58.361,5.509,57.133,5,56.104,5H16.209c-3.168,0-5.745,2.577-5.745,5.745v68.937  c0,3.168,2.577,5.744,5.745,5.744h38.938c1.058,0,1.914-0.857,1.914-1.915S56.204,81.596,55.146,81.596z M58.977,11.537  l12.611,12.612H60.891c-1.057,0-1.914-0.859-1.914-1.915V11.537z"/><path d="M88.975,73.938c-0.748-0.748-1.961-0.748-2.709,0l-8.143,8.144V63.085c0-1.058-0.857-1.915-1.915-1.915  s-1.915,0.857-1.915,1.915V82.08l-8.145-8.145c-0.748-0.748-1.959-0.748-2.707,0s-0.748,1.959,0,2.707L74.18,87.38  c0.541,0.541,1.262,0.841,2.029,0.841s1.489-0.3,2.031-0.841l10.734-10.735C89.723,75.896,89.723,74.686,88.975,73.938z"/><path d="M87.061,91.17H65.357c-1.059,0-1.916,0.857-1.916,1.915S64.3,95,65.357,95h21.703c1.058,0,1.914-0.857,1.914-1.915  S88.118,91.17,87.061,91.17z"/><path d="M63.443,64.361c0-1.057-0.857-1.914-1.916-1.914H27.06c-1.058,0-1.915,0.857-1.915,1.914c0,1.058,0.857,1.914,1.915,1.914  h34.467C62.586,66.275,63.443,65.419,63.443,64.361z"/><path d="M61.527,49.681H27.06c-1.058,0-1.915,0.857-1.915,1.915c0,1.057,0.857,1.914,1.915,1.914h34.467  c1.059,0,1.916-0.857,1.916-1.914C63.441,50.538,62.585,49.681,61.527,49.681z"/><path d="M61.527,36.915H27.06c-1.058,0-1.915,0.857-1.915,1.915s0.857,1.915,1.915,1.915h34.467c1.059,0,1.916-0.857,1.916-1.915  C63.441,37.772,62.585,36.915,61.527,36.915z"/><path d="M27.06,27.978h18.51c1.058,0,1.915-0.857,1.915-1.915s-0.857-1.914-1.915-1.914H27.06c-1.058,0-1.915,0.857-1.915,1.914  C25.145,27.121,26.002,27.978,27.06,27.978z"/></svg>