<svg width="56.693" height="56.693" xmlns="http://www.w3.org/2000/svg">

 <g>
  <title>background</title>
  <rect fill="none" id="canvas_background" height="402" width="582" y="-1" x="-1"/>
 </g>
 <g fill="#a2a0b2">
  <title>Layer 1</title>
  <path id="svg_2" d="m33.619,31.814l-17.912,0c-0.335,0 -0.607,0.272 -0.607,0.607c0,0.334 0.272,0.605 0.607,0.605l17.912,0c0.337,0 0.607,-0.271 0.607,-0.605c0,-0.335 -0.27,-0.607 -0.607,-0.607z"/>
  <path id="svg_3" d="m33.619,43.634l-17.912,0c-0.335,0 -0.607,0.271 -0.607,0.607c0,0.334 0.272,0.606 0.607,0.606l17.912,0c0.337,0 0.607,-0.272 0.607,-0.606c0,-0.336 -0.27,-0.607 -0.607,-0.607z"/>
  <path id="svg_4" d="m33.619,37.752l-17.912,0c-0.335,0 -0.607,0.272 -0.607,0.607c0,0.334 0.272,0.605 0.607,0.605l17.912,0c0.337,0 0.607,-0.271 0.607,-0.605c0,-0.335 -0.27,-0.607 -0.607,-0.607z"/>
  <path id="svg_5" d="m15.707,27.059l7.167,0c0.336,0 0.606,-0.271 0.606,-0.605c0,-0.335 -0.27,-0.607 -0.606,-0.607l-7.167,0c-0.335,0 -0.607,0.271 -0.607,0.607c0,0.334 0.272,0.605 0.607,0.605z"/>
  <path stroke-width="0" stroke="#474a56" id="svg_6" d="m35.185,13.489c-0.283,-0.279 -0.665,-0.436 -1.063,-0.436l-25.142,0c-0.837,0 -1.515,0.678 -1.515,1.515l0,38.533c0,0.837 0.678,1.516 1.515,1.516l31.493,0c0.839,0 1.517,-0.678 1.517,-1.516l0,-32.272c0,-0.405 -0.163,-0.794 -0.452,-1.079l-6.353,-6.261zm3.774,38.097l-28.464,0l0,-35.503l22.718,0l0,4.76c0,0.501 0.406,0.908 0.909,0.908l4.837,0l0,29.835z"/>
  <path id="svg_7" d="m49.841,11.403l-6.352,-6.261c-0.283,-0.279 -0.665,-0.435 -1.063,-0.435l-25.143,0c-0.837,0 -1.515,0.678 -1.515,1.515l0,3.458l3.03,0l0,-1.944l22.718,0l0,4.76c0,0.502 0.406,0.908 0.909,0.908l4.837,0l0,29.834l-1.9,0l0,3.031l3.413,0c0.839,0 1.517,-0.678 1.517,-1.516l0,-32.272c0.001,-0.405 -0.163,-0.794 -0.451,-1.078z"/>
 </g>
</svg>